<svg width="40" height="11" viewBox="0 0 40 11" fill="none" xmlns="http://www.w3.org/2000/svg">
<path d="M2.73713 1.21239C2.59166 1.06151 2.41629 0.943025 2.22236 0.864614C2.02844 0.786202 1.82029 0.74961 1.61141 0.757206C1.38879 0.754248 1.16781 0.795735 0.961267 0.879265C0.771901 0.954688 0.599767 1.06802 0.455322 1.21239C0.312451 1.35718 0.201292 1.53042 0.128988 1.72097C0.0496792 1.92066 0.0101425 2.13406 0.0126205 2.34907V6.14309C0.00357283 6.41045 0.0545882 6.67641 0.161874 6.92122C0.251433 7.11565 0.380725 7.28894 0.541333 7.4298C0.692953 7.55747 0.870978 7.64955 1.06246 7.69935C1.24694 7.75121 1.43755 7.77773 1.62911 7.77818C1.84041 7.7803 2.04953 7.73513 2.24131 7.64595C2.43095 7.56298 2.60277 7.4438 2.74725 7.29503C2.88814 7.14763 3.00052 6.97517 3.07865 6.78645C3.15973 6.59513 3.20105 6.38918 3.20007 6.18123V5.75657H2.20842V6.09477C2.21137 6.21026 2.1916 6.3252 2.15024 6.43298C2.11794 6.51374 2.06877 6.58658 2.00604 6.64659C1.94461 6.69622 1.87416 6.73336 1.79861 6.75593C1.73164 6.77823 1.6617 6.79023 1.59117 6.79153C1.50263 6.80184 1.41296 6.78846 1.33122 6.75274C1.24948 6.71701 1.17858 6.66022 1.1257 6.5881C1.03222 6.43562 0.986395 6.25846 0.994154 6.07952V2.54233C0.988002 2.34618 1.02969 2.15149 1.11558 1.97526C1.16706 1.89518 1.2399 1.83126 1.32578 1.7908C1.41166 1.75033 1.50713 1.73495 1.60129 1.7464C1.68676 1.74335 1.7717 1.7612 1.8488 1.7984C1.92591 1.83561 1.99289 1.89106 2.04399 1.96C2.15496 2.10569 2.21298 2.28516 2.20842 2.46858V2.79662H3.18995V2.4101C3.19195 2.18311 3.15073 1.95783 3.06853 1.7464C2.99527 1.54763 2.88251 1.36593 2.73713 1.21239Z" fill="#AFB1B8"/>
<path d="M8.62892 1.16911C8.31271 0.902108 7.91362 0.754591 7.50066 0.752075C7.29868 0.752929 7.09838 0.789067 6.9087 0.858877C6.71613 0.927904 6.53841 1.0332 6.38505 1.16911C6.22076 1.31679 6.08968 1.49797 6.00053 1.70058C5.90063 1.93233 5.85146 2.18296 5.85634 2.43548V6.07439C5.8495 6.33037 5.89873 6.58473 6.00053 6.81946C6.09028 7.01515 6.22152 7.18873 6.38505 7.32805C6.53665 7.46881 6.71468 7.57774 6.9087 7.64845C7.09838 7.71826 7.29868 7.7544 7.50066 7.75525C7.70269 7.75487 7.90307 7.71872 8.09262 7.64845C8.28995 7.57675 8.47195 7.46802 8.62892 7.32805C8.7871 7.18612 8.91454 7.01301 9.00332 6.81946C9.10512 6.58473 9.15435 6.33037 9.14751 6.07439V2.43548C9.15239 2.18296 9.10322 1.93233 9.00332 1.70058C8.91505 1.50008 8.78775 1.31938 8.62892 1.16911ZM8.16598 6.07439C8.17434 6.17137 8.16095 6.26901 8.1268 6.36011C8.09265 6.45121 8.03861 6.53345 7.96866 6.60077C7.83768 6.71062 7.67251 6.77079 7.50193 6.77079C7.33135 6.77079 7.16617 6.71062 7.03519 6.60077C6.96524 6.53345 6.9112 6.45121 6.87705 6.36011C6.8429 6.26901 6.82952 6.17137 6.83787 6.07439V2.43548C6.82952 2.33849 6.8429 2.24086 6.87705 2.14976C6.9112 2.05866 6.96524 1.97643 7.03519 1.9091C7.16617 1.79925 7.33135 1.73909 7.50193 1.73909C7.67251 1.73909 7.83768 1.79925 7.96866 1.9091C8.03861 1.97643 8.09265 2.05866 8.1268 2.14976C8.16095 2.24086 8.17434 2.33849 8.16598 2.43548V6.07439Z" fill="#AFB1B8"/>
<path d="M16.3673 7.69941V0.810669H15.4136L14.1614 4.4572H14.1437L12.8813 0.810669H11.9377V7.69941H12.9218V3.5087H12.9395L13.9033 6.47119H14.3941L15.3655 3.5087H15.3832V7.69941H16.3673Z" fill="#AFB1B8"/>
<path d="M21.9581 1.29367C21.8065 1.12367 21.6153 0.99432 21.4015 0.917313C21.1712 0.842384 20.9302 0.806296 20.6881 0.810512H19.226V7.69927H20.2075V5.00886H20.7134C21.0197 5.02279 21.3244 4.95803 21.5988 4.82069C21.822 4.69677 22.0081 4.51501 22.1377 4.2943C22.2512 4.11108 22.3277 3.90715 22.3628 3.69418C22.4014 3.43497 22.4192 3.17304 22.4159 2.91096C22.4255 2.58015 22.3932 2.24947 22.3198 1.92685C22.2543 1.68848 22.1299 1.47065 21.9581 1.29367ZM21.4521 3.39411C21.4479 3.51884 21.4168 3.64116 21.361 3.75267C21.3049 3.85859 21.2162 3.94336 21.1081 3.99424C20.9627 4.05925 20.8041 4.08887 20.6451 4.0807H20.1974V1.73868H20.7033C20.8557 1.73121 21.0075 1.76087 21.146 1.82514C21.2475 1.88337 21.3281 1.97238 21.3762 2.07943C21.4299 2.20045 21.4591 2.33096 21.4622 2.46341C21.4622 2.60835 21.4622 2.76093 21.4622 2.92113C21.4622 3.08134 21.4723 3.24663 21.4622 3.39411H21.4521Z" fill="#AFB1B8"/>
<path d="M26.6077 0.810669H25.8032L24.2854 7.69941H25.2669L25.5553 6.21944H26.8935L27.1819 7.69941H28.1635L26.6077 0.810669ZM25.702 5.28111L26.1852 2.78397H26.2029L26.6836 5.28111H25.702Z" fill="#AFB1B8"/>
<path d="M32.9497 4.9607H32.932L31.4496 0.810669H30.506V7.69941H31.4875V3.55701H31.5078L33.0079 7.69941H33.9312V0.810669H32.9497V4.9607Z" fill="#AFB1B8"/>
<path d="M38.9476 0.810669L38.1583 3.54939H38.1381L37.3488 0.810669H36.3091L37.6574 4.78778V7.69941H38.639V4.78778L39.9873 0.810669H38.9476Z" fill="#AFB1B8"/>
<path d="M0 9.64453H0.473058V10.9719H0.794333V9.64453H1.26486V9.37244H0V9.64453Z" fill="#AFB1B8"/>
<path d="M3.97672 9.37244L3.35693 10.9719H3.69845L3.82999 10.6083H4.46748L4.60409 10.9719H4.95319L4.31823 9.37244H3.97672ZM3.92612 10.3387L4.14368 9.74624L4.36123 10.3387H3.92612Z" fill="#AFB1B8"/>
<path d="M7.90793 10.3821H8.27727V10.5881C8.16941 10.6746 8.03576 10.722 7.89781 10.7229C7.8333 10.7265 7.76886 10.7145 7.70988 10.688C7.65091 10.6614 7.59911 10.6211 7.55883 10.5703C7.47402 10.4485 7.43217 10.3017 7.43993 10.1533C7.43993 9.79726 7.59424 9.61926 7.90034 9.61926C7.98091 9.61123 8.06168 9.63246 8.12804 9.6791C8.19439 9.72575 8.24194 9.79472 8.26209 9.87355L8.57831 9.81252C8.51001 9.49974 8.28486 9.34208 7.90034 9.34208C7.69468 9.33659 7.4947 9.41027 7.34127 9.54806C7.26069 9.62763 7.19834 9.72392 7.15858 9.8302C7.11882 9.93648 7.10261 10.0502 7.11107 10.1634C7.10175 10.3823 7.17493 10.5966 7.31598 10.7636C7.39434 10.8444 7.4892 10.9071 7.59401 10.9475C7.69883 10.9879 7.8111 11.0049 7.92311 10.9975C8.17338 11.0045 8.41652 10.9133 8.60108 10.7432V10.1126H7.90793V10.3821Z" fill="#AFB1B8"/>
<path d="M11.9226 9.37244H11.5988V10.9719H12.7194V10.6998H11.9226V9.37244Z" fill="#AFB1B8"/>
<path d="M15.3175 9.37244H14.9937V10.9719H15.3175V9.37244Z" fill="#AFB1B8"/>
<path d="M18.6365 10.4405L17.9813 9.37244H17.6676V10.9719H17.9686V9.92679L18.6112 10.9719H18.9325V9.37244H18.6365V10.4405Z" fill="#AFB1B8"/>
<path d="M21.6368 10.2675H22.4337V9.99545H21.6368V9.64453H22.4944V9.37244H21.313V10.9719H22.5273V10.6998H21.6368V10.2675Z" fill="#AFB1B8"/>
<path d="M28.9122 10.0031H28.2823V9.37244H27.9611V10.9719H28.2823V10.2726H28.9122V10.9719H29.2335V9.37244H28.9122V10.0031Z" fill="#AFB1B8"/>
<path d="M31.9302 10.2675H32.7296V9.99545H31.9302V9.64453H32.7903V9.37244H31.6089V10.9719H32.8206V10.6998H31.9302V10.2675Z" fill="#AFB1B8"/>
<path d="M36.0233 10.2676C36.3015 10.2244 36.4432 10.0769 36.4432 9.8226C36.4513 9.75457 36.441 9.68561 36.4134 9.62296C36.3858 9.56032 36.3419 9.5063 36.2863 9.46659C36.1415 9.39385 35.9799 9.36136 35.8183 9.3725H35.1404V10.972H35.4617V10.3032H35.5249C35.5934 10.299 35.6619 10.3112 35.7247 10.3388C35.7717 10.3678 35.8108 10.4079 35.8386 10.4558L36.1877 10.9644H36.5722L36.3774 10.6516C36.2913 10.4972 36.1699 10.3656 36.0233 10.2676ZM35.6994 10.0464H35.4617V9.64459H35.7146C35.8248 9.63566 35.9357 9.64862 36.041 9.68274C36.0644 9.70339 36.0828 9.72908 36.095 9.75789C36.1072 9.7867 36.1127 9.81789 36.1113 9.84915C36.1098 9.88042 36.1014 9.91095 36.0866 9.93849C36.0718 9.96603 36.051 9.98986 36.0258 10.0082C35.9202 10.0406 35.8096 10.0535 35.6994 10.0464Z" fill="#AFB1B8"/>
<path d="M39.1096 10.2675H39.9064V9.99545H39.1096V9.64453H39.9697V9.37244H38.7858V10.9719H40V10.6998H39.1096V10.2675Z" fill="#AFB1B8"/>
</svg>
