<svg width="18" height="20" viewBox="0 0 18 20" fill="none" xmlns="http://www.w3.org/2000/svg">
<path d="M0 11.5495C0.00604098 13.6091 0.929149 15.5828 2.56761 17.0394C4.20607 18.496 6.42668 19.317 8.74418 19.3231C11.0612 19.317 13.2814 18.4963 14.9197 17.0403C16.5581 15.5843 17.4816 13.6112 17.4884 11.552V0.194336C17.4884 0.194336 0 1.9266 0 11.5495ZM8.74418 13.5844C8.2913 13.5844 7.84859 13.4651 7.47203 13.2415C7.09548 13.0179 6.80199 12.7001 6.62868 12.3282C6.45537 11.9564 6.41002 11.5472 6.49838 11.1525C6.58673 10.7577 6.80481 10.3951 7.12505 10.1105C7.44528 9.82593 7.85328 9.63212 8.29746 9.5536C8.74164 9.47508 9.20204 9.51538 9.62045 9.6694C10.0389 9.82342 10.3965 10.0843 10.6481 10.4189C10.8997 10.7535 11.034 11.147 11.034 11.5495C11.0351 11.8173 10.9767 12.0828 10.8622 12.3306C10.7476 12.5783 10.5791 12.8036 10.3664 12.9933C10.1536 13.1831 9.90081 13.3337 9.62244 13.4364C9.34406 13.5392 9.04561 13.5921 8.74418 13.5921V13.5844Z" fill="#2196F3"/>
</svg>
